<?xml version="1.0" encoding="UTF-8" standalone="no"?>
<svg
   version="1.2"
   viewBox="0 0 2120 750"
   width="2120"
   height="750"
   id="svg1"
   sodipodi:docname="new logo 1 drop shadow.svg"
   xml:space="preserve"
   inkscape:version="1.4.2 (ebf0e940d0, 2025-05-08)"
   xmlns:inkscape="http://www.inkscape.org/namespaces/inkscape"
   xmlns:sodipodi="http://sodipodi.sourceforge.net/DTD/sodipodi-0.dtd"
   xmlns="http://www.w3.org/2000/svg"
   xmlns:svg="http://www.w3.org/2000/svg"
   xmlns:rdf="http://www.w3.org/1999/02/22-rdf-syntax-ns#"
   xmlns:cc="http://creativecommons.org/ns#"
   xmlns:dc="http://purl.org/dc/elements/1.1/"><sodipodi:namedview
     id="namedview1"
     pagecolor="#2e3440"
     bordercolor="#000000"
     borderopacity="0.25"
     inkscape:showpageshadow="2"
     inkscape:pageopacity="0.0"
     inkscape:pagecheckerboard="0"
     inkscape:deskcolor="#d1d1d1"
     inkscape:zoom="0.63087774"
     inkscape:cx="1087.3739"
     inkscape:cy="492.17143"
     inkscape:window-width="2560"
     inkscape:window-height="1368"
     inkscape:window-x="0"
     inkscape:window-y="0"
     inkscape:window-maximized="1"
     inkscape:current-layer="svg1" /><title
     id="title1">Untitled-1</title><defs
     id="defs1"><rect
       x="335.1282"
       y="3.9229054"
       width="103.67679"
       height="74.535202"
       id="rect2" /><filter
       x="0"
       y="0"
       width="1"
       height="1"
       id="f1"><feDropShadow
         dx="15.426902632476946"
         dy="18.385066634855473"
         stdDeviation="0"
         flood-color="#000000"
         flood-opacity=".8" /></filter></defs><style
     id="style1">
		.s0 { filter: url(#f1);fill: #f26522;stroke: #000000;stroke-width: 0 } 
	</style><path
     id="rect1"
     style="display:inline;fill:#2e3440;stroke-width:1.16776"
     d="M 0,0 H 2120 V 750 H 0 Z"
     inkscape:label="Added Background" /><path
     d="m 345,290 v 23.33331 93.33325 139.99988 h 54.07403 V 406.66656 h 81.11106 V 383.33325 H 399.07403 V 313.33331 H 507.22211 V 290 Z m 243.33317,93.33325 v 23.33331 h -27.03703 v 69.99994 46.66663 h 27.03703 v 23.33331 H 696.48125 V 523.33313 H 615.37019 V 476.6665 h 108.14807 v -23.33331 -46.66663 h -27.03701 v -23.33331 z m 81.11105,69.99994 h -54.07403 v -46.66663 h 54.07403 z m 135.1851,-139.99988 v 69.99994 H 777.5923 v 23.33331 h 27.03702 v 116.66657 h 27.03702 v 23.33331 H 939.81441 V 523.33313 H 858.70336 V 406.66656 h 81.11105 v -23.33331 h -81.11105 v -69.99994 z m 297.40718,186.6665 v 23.33332 h -54.074 V 406.66656 h 54.074 v 23.33331 h 54.0741 v -23.33331 h -27.037 v -23.33331 h -108.1481 v 23.33331 h -27.03705 v 116.66657 h 27.03705 v 23.33331 h 108.1481 v -23.33331 h 27.037 V 499.99981 Z M 1210.1846,290 v 116.66656 139.99988 h 54.074 V 406.66656 h 54.074 v 139.99988 h 54.0742 V 406.66656 h -27.037 v -23.33331 h -81.1112 V 290 Z m 243.3332,93.33325 v 23.33331 h -27.037 v 69.99994 46.66663 h 27.037 v 23.33331 h 108.1481 v -23.33331 h -81.1111 V 476.6665 h 108.1481 v -23.33331 -46.66663 h -27.037 v -23.33331 z m 81.1111,69.99994 h -54.0741 v -46.66663 h 54.0741 z m 108.148,-69.99994 v 23.33331 139.99988 h 54.074 V 406.66656 h 54.0742 v 46.66663 h 54.074 v -46.66663 h -27.037 v -23.33331 z"
     id="text1-0"
     style="font-size:373.333px;font-family:unscii;-inkscape-font-specification:unscii;white-space:pre;inline-size:1427.54;fill:#f8f9fa;stroke-width:1.07644"
     aria-label="Fetcher"
     inkscape:label="Heading Drop Shadow" /><path
     d="m 330.0005,275 v 23.33331 93.33325 139.99988 h 54.07403 V 391.66656 h 81.11106 V 368.33325 H 384.07453 V 298.33331 H 492.22261 V 275 Z m 243.33317,93.33325 v 23.33331 h -27.03703 v 69.99994 46.66663 h 27.03703 v 23.33331 H 681.48175 V 508.33313 H 600.37069 V 461.6665 h 108.14807 v -23.33331 -46.66663 h -27.03701 v -23.33331 z m 81.11105,69.99994 h -54.07403 v -46.66663 h 54.07403 z m 135.1851,-139.99988 v 69.99994 H 762.5928 v 23.33331 h 27.03702 v 116.66657 h 27.03702 v 23.33331 H 924.81491 V 508.33313 H 843.70386 V 391.66656 h 81.11105 v -23.33331 h -81.11105 v -69.99994 z m 297.40718,186.6665 v 23.33332 h -54.074 V 391.66656 h 54.074 v 23.33331 h 54.0741 v -23.33331 h -27.037 V 368.33325 H 1005.926 v 23.33331 h -27.03705 v 116.66657 h 27.03705 v 23.33331 h 108.1481 v -23.33331 h 27.037 V 484.99981 Z M 1195.1851,275 v 116.66656 139.99988 h 54.074 V 391.66656 h 54.074 v 139.99988 h 54.0741 V 391.66656 h -27.037 v -23.33331 h -81.1111 V 275 Z m 243.3332,93.33325 v 23.33331 h -27.037 v 69.99994 46.66663 h 27.037 v 23.33331 h 108.1481 v -23.33331 h -81.1111 V 461.6665 h 108.1481 v -23.33331 -46.66663 h -27.037 v -23.33331 z m 81.1111,69.99994 h -54.0741 v -46.66663 h 54.0741 z m 108.148,-69.99994 v 23.33331 139.99988 h 54.074 V 391.66656 h 54.0741 v 46.66663 h 54.074 v -46.66663 h -27.037 v -23.33331 z"
     id="text1"
     style="font-size:373.333px;font-family:unscii;-inkscape-font-specification:unscii;white-space:pre;inline-size:1427.54;fill:#4f73bc;stroke-width:1.07644"
     aria-label="Fetcher"
     inkscape:label="Heading" /><path
     style="font-size:133.333px;font-family:unscii;-inkscape-font-specification:unscii;fill:#7eb3df"
     d="m 1299.846,596.86594 12.1821,39.84593 -7.9691,2.43642 -2.4365,-7.96919 -7.9691,2.43642 -4.8729,-15.93836 -7.9692,2.43642 -4.8728,-15.93838 -15.9385,4.87287 14.6186,47.81512 12.1821,39.84593 15.9385,-4.87287 -12.1822,-39.84593 7.9692,-2.43642 2.4364,7.96919 7.9692,-2.43643 4.8729,15.93837 7.9691,-2.43642 4.8729,15.93838 15.9383,-4.87284 -12.1821,-39.84593 -2.4364,-7.9692 -12.1821,-39.84593 z m 49.5917,19.69461 2.4364,7.96918 -7.9692,2.43642 12.1822,39.84593 7.9691,-2.43642 2.4365,7.96919 31.8766,-9.74568 -2.4364,-7.96919 7.9692,-2.43642 -12.1821,-39.84593 -7.9692,2.43642 -2.4364,-7.96919 z m 38.526,40.50585 -15.9383,4.87284 -12.1821,-39.84593 15.9383,-4.87284 z m 38.0695,-46.49529 7.3093,23.90755 -7.9692,2.43642 -12.1821,-39.84593 -15.9385,4.87287 12.1821,39.84593 7.9693,-2.43645 2.4364,7.96918 2.4365,7.9692 15.9383,-4.87285 -2.4364,-7.96919 7.9692,-2.43642 2.4364,7.96919 15.9383,-4.87284 -2.4364,-7.96919 -2.4364,-7.96919 7.9692,-2.43642 -7.3093,-23.90755 -4.8729,-15.93838 -15.9383,4.87285 4.8728,15.93837 7.3093,23.90756 -7.9692,2.43642 -7.3092,-23.90756 z m 127.507,-38.9828 7.3092,23.90755 -7.9691,2.43642 -12.1821,-39.84593 -15.9385,4.87287 12.1821,39.84593 7.9692,-2.43642 2.4364,7.96919 2.4365,7.96919 15.9384,-4.87287 -2.4364,-7.9692 7.9691,-2.43642 2.4365,7.9692 15.9383,-4.87284 -2.4364,-7.9692 -2.4364,-7.96918 7.9691,-2.43642 -7.3092,-23.90756 -4.8729,-15.93837 -15.9383,4.87284 4.8728,15.93838 7.3093,23.90755 -7.9692,2.43642 -7.3092,-23.90755 z m 42.9422,-30.55691 2.4364,7.96919 15.9384,-4.87287 14.6186,47.81512 31.8767,-9.74568 -2.4364,-7.9692 -15.9384,4.87284 -14.6185,-47.81511 z m 6.1927,-36.74961 4.8729,15.93838 15.9383,-4.87285 -4.8728,-15.93837 z m 58.2207,-9.08576 7.3092,23.90756 -7.9691,2.43642 2.4364,7.96918 7.9692,-2.43642 12.1821,39.84593 7.9692,-2.43642 2.4364,7.96919 31.8768,-9.74571 -2.4364,-7.9692 -23.9076,7.30927 -12.1821,-39.84593 23.9075,-7.30927 -2.4364,-7.96918 -23.9075,7.30926 -7.3093,-23.90755 z m 53.3479,-25.02417 12.1821,39.84593 14.6185,47.81513 15.9384,-4.87285 -14.6186,-47.81512 15.9385,-4.87287 14.6185,47.81512 15.9384,-4.87284 -14.6186,-47.81512 -7.9692,2.43642 -2.4364,-7.96919 -23.9076,7.3093 -9.7457,-31.87675 z m 159.3837,-48.72851 12.1822,39.84593 -7.9692,2.43642 -2.4364,-7.96918 -7.9692,2.43642 -4.8729,-15.93837 -7.9692,2.43645 -4.8729,-15.93837 -15.9383,4.87284 14.6185,47.81512 12.1821,39.84593 15.9384,-4.87284 -12.1821,-39.84593 7.9692,-2.43645 2.4365,7.96918 7.9691,-2.43642 4.8729,15.93837 7.9692,-2.43642 4.8728,15.93837 15.9384,-4.87284 -12.1822,-39.84593 -2.4364,-7.96919 -12.1821,-39.84593 z m 41.6224,22.13106 2.4365,7.96919 15.9384,-4.87287 14.6185,47.81512 31.8767,-9.74569 -2.4364,-7.96919 -15.9383,4.87284 -14.6186,-47.81511 z m 6.1928,-36.74961 4.8728,15.93837 15.9384,-4.87284 -4.8729,-15.93838 z m 89.4375,7.5125 4.8729,15.93838 -7.9692,2.43642 2.4364,7.96918 -7.9692,2.43643 -2.4364,-7.96919 -7.9692,2.43642 -4.8728,-15.93838 -15.9385,4.87288 4.8729,15.93837 7.9692,-2.43642 2.4364,7.96919 7.9693,-2.43645 2.4364,7.96918 -7.9693,2.43645 2.4364,7.96918 -7.9691,2.43643 4.8728,15.93837 15.9385,-4.87287 -4.8729,-15.93838 7.9692,-2.43642 -2.4364,-7.96918 7.9691,-2.43642 2.4365,7.96918 7.9691,-2.43642 4.8729,15.93838 15.9383,-4.87284 -4.8728,-15.93838 -7.9692,2.43642 -2.4364,-7.96918 -7.9692,2.43642 -2.4364,-7.96919 7.9692,-2.43642 -2.4365,-7.96918 7.9692,-2.43642 -4.8728,-15.93838 z m 59.9972,25.2274 4.8728,15.93838 15.9384,-4.87284 -4.8729,-15.93838 z m -24.3643,-79.69185 19.4914,63.75349 15.9384,-4.87285 L 2062.4514,355 Z"
     id="text2"
     aria-label="Now with Nix!"
     inkscape:label="Flair" /><metadata
     id="metadata2"><rdf:RDF><cc:Work
         rdf:about=""><dc:title>Untitled-1</dc:title></cc:Work></rdf:RDF></metadata><path
     d="m 290,80 v 10 h -10 v 10 h -10 v 40 50 h 20 v -50 h 20 v 50 h 20 V 140 130 100 H 320 V 90 H 310 V 80 Z m 20,50 h -20 v -30 h 20 z m 40,-10 v 10 60 h 20 v -60 h 20 v 60 h 20 v -60 h -10 v -10 z m 80,0 v 10 h 20 v 60 h 40 v -10 h -20 v -60 z m 20,-40 v 20 h 20 V 80 Z m 90,40 v 10 h -20 v -10 h -20 v 20 50 h 20 v -50 h 10 v 40 h 10 v -40 h 10 v 50 h 20 v -50 -10 h -10 v -10 z m 60,0 v 10 h 30 v 10 h -30 v 10 h -10 v 30 h 10 v 10 h 50 v -10 -30 -20 h -10 v -10 z m 30,60 h -20 v -30 h 20 z m 50,-90 v 30 h -10 v 10 h 10 v 50 h 10 v 10 h 40 v -10 h -30 v -50 h 30 V 120 H 700 V 90 Z m 80,30 v 10 h -10 v 30 20 h 10 v 10 h 40 v -10 h -30 v -20 h 40 v -10 -20 h -10 v -10 z m 30,30 h -20 v -20 h 20 z m 80,-70 v 40 h -30 v 10 h -10 v 50 h 10 v 10 h 50 V 180 130 80 Z m 0,100 h -20 v -50 h 20 z M 1010,80 v 10 h -10 v 10 h -10 v 40 50 h 20 v -50 h 20 v 50 h 20 v -50 -10 -30 h -10 V 90 h -10 V 80 Z m 20,50 h -20 v -30 h 20 z m 40,-50 v 10 h 20 v 100 h 40 v -10 h -20 V 80 Z m 80,0 v 50 60 h 50 v -10 h 10 v -50 h -10 v -10 h -30 V 80 Z m 40,100 h -20 v -50 h 20 z m 80,-60 v 60 h -20 v -60 h -20 v 60 h 10 v 10 h 50 v -10 -60 z m 70,0 v 10 h -20 v -10 h -20 v 20 50 h 20 v -50 h 10 v 40 h 10 v -40 h 10 v 50 h 20 v -50 -10 h -10 v -10 z m 170,40 v 20 h -20 V 90 h 20 v 20 h 20 V 90 h -10 V 80 h -40 v 10 h -10 v 90 h 10 v 10 h 40 v -10 h 10 v -20 z m 50,-40 v 10 h -10 v 50 h 10 v 10 h 40 v -10 h 10 v -50 h -10 v -10 z m 30,60 h -20 v -50 h 20 z m 80,-60 v 50 h -20 v -50 h -20 v 50 h 10 v 10 h 10 v 10 h 20 v -10 h 10 v -10 h 10 v -50 z m 50,0 v 10 h -10 v 30 20 h 10 v 10 h 40 v -10 h -30 v -20 h 40 v -10 -20 h -10 v -10 z m 30,30 h -20 v -20 h 20 z m 40,-30 v 10 60 h 20 v -60 h 20 v 20 h 20 v -20 h -10 v -10 z"
     id="text3"
     style="font-size:160px;font-family:unscii;-inkscape-font-specification:unscii;fill:#4f73bc"
     aria-label="Animated Album Cover"
     inkscape:label="Pre-Heading" /></svg>
